<svg width="22" height="21" viewBox="0 0 22 21" fill="none" xmlns="http://www.w3.org/2000/svg">
<g filter="url(#filter0_d_13_23)">
<path d="M9.95246 0.870735L10.6461 0.209869C10.9399 -0.0699565 11.4148 -0.0699565 11.7054 0.209869L17.7797 5.99393C18.0734 6.27376 18.0734 6.72624 17.7797 7.00309L11.7054 12.7901C11.4117 13.07 10.9367 13.07 10.6461 12.7901L9.95246 12.1293C9.65562 11.8465 9.66187 11.385 9.96496 11.1082L13.7302 7.69075H4.74992C4.33434 7.69075 4 7.37222 4 6.9763V6.0237C4 5.62778 4.33434 5.30925 4.74992 5.30925H13.7302L9.96496 1.8918C9.65874 1.61495 9.65249 1.15354 9.95246 0.870735Z" fill="black"/>
<path d="M10.2955 1.23454L10.2955 1.23455L10.2973 1.23275L10.991 0.57188C11.0927 0.47505 11.2626 0.477646 11.3586 0.570032L11.3606 0.571968L17.4348 6.35594C17.5228 6.4398 17.52 6.56082 17.4368 6.63924L17.4348 6.64108L11.3605 12.4281C11.2589 12.525 11.0889 12.5224 10.993 12.43L10.991 12.4281L10.2973 11.7673C10.212 11.6859 10.2115 11.5606 10.3017 11.4778C10.3018 11.4777 10.302 11.4775 10.3022 11.4774L14.0662 8.06099L15.025 7.19075H13.7302H4.74992C4.58738 7.19075 4.5 7.07353 4.5 6.9763V6.0237C4.5 5.92647 4.58738 5.80925 4.74992 5.80925H13.7302H15.025L14.0662 4.93901L10.301 1.52156L10.3003 1.52091C10.2089 1.43833 10.2094 1.31566 10.2955 1.23454Z" stroke="black"/>
</g>
<defs>
<filter id="filter0_d_13_23" x="0" y="0" width="22" height="21" filterUnits="userSpaceOnUse" color-interpolation-filters="sRGB">
<feFlood flood-opacity="0" result="BackgroundImageFix"/>
<feColorMatrix in="SourceAlpha" type="matrix" values="0 0 0 0 0 0 0 0 0 0 0 0 0 0 0 0 0 0 127 0" result="hardAlpha"/>
<feOffset dy="4"/>
<feGaussianBlur stdDeviation="2"/>
<feComposite in2="hardAlpha" operator="out"/>
<feColorMatrix type="matrix" values="0 0 0 0 0 0 0 0 0 0 0 0 0 0 0 0 0 0 0.25 0"/>
<feBlend mode="normal" in2="BackgroundImageFix" result="effect1_dropShadow_13_23"/>
<feBlend mode="normal" in="SourceGraphic" in2="effect1_dropShadow_13_23" result="shape"/>
</filter>
</defs>
</svg>
